<?xml version="1.0" encoding="UTF-8" standalone="no"?>
<svg
   width="288"
   zoomAndPan="magnify"
   viewBox="0 0 216 143.999998"
   height="192"
   preserveAspectRatio="xMidYMid meet"
   version="1.0"
   id="svg27"
   sodipodi:docname="logo-inverted.svg"
   inkscape:version="1.4 (e7c3feb100, 2024-10-09)"
   xmlns:inkscape="http://www.inkscape.org/namespaces/inkscape"
   xmlns:sodipodi="http://sodipodi.sourceforge.net/DTD/sodipodi-0.dtd"
   xmlns="http://www.w3.org/2000/svg"
   xmlns:svg="http://www.w3.org/2000/svg">
  <sodipodi:namedview
     id="namedview27"
     pagecolor="#505050"
     bordercolor="#eeeeee"
     borderopacity="1"
     inkscape:showpageshadow="0"
     inkscape:pageopacity="0"
     inkscape:pagecheckerboard="0"
     inkscape:deskcolor="#d1d1d1"
     inkscape:zoom="4.5104167"
     inkscape:cx="144"
     inkscape:cy="96"
     inkscape:window-width="1910"
     inkscape:window-height="1070"
     inkscape:window-x="3845"
     inkscape:window-y="5"
     inkscape:window-maximized="1"
     inkscape:current-layer="svg27" />
  <defs
     id="defs1">
    <g
       id="g1" />
  </defs>
  <path
     fill="#fa023c"
     d="M 94.121094 57.039062 C 83.191406 57.609375 84.695312 91.085938 84.695312 91.085938 C 84.695312 91.085938 84.230469 94.78125 82.667969 96.90625 C 81.101562 99.035156 78.484375 100.554688 77.820312 99.890625 C 77.820312 99.890625 82.085938 88.230469 81.890625 82 C 81.890625 81.992188 75.886719 82 75.886719 82 C 75.886719 86.046875 72.6875 99.90625 69.183594 100.570312 C 65.683594 101.230469 66.675781 97.574219 66.675781 93.832031 C 66.675781 88.316406 67.429688 82.269531 63.425781 81.769531 C 59.425781 81.269531 55.160156 88.085938 55.160156 88.085938 C 55.160156 88.085938 55.667969 84.089844 51.664062 82.09375 C 47.660156 80.097656 37.65625 85.089844 37.65625 85.089844 C 38.589844 80.875 36.898438 75.554688 32.148438 75.605469 C 27.953125 75.859375 24.996094 78.773438 22.148438 81.089844 L 26.15625 85.089844 C 26.15625 85.089844 30.144531 80.601562 32.148438 83.097656 C 34.148438 85.59375 24.441406 131.945312 24.441406 131.945312 L 30.449219 131.945312 L 36.15625 108.058594 C 36.15625 108.058594 49.164062 109.0625 51.664062 106.066406 C 54.164062 103.070312 56.167969 95.085938 56.167969 95.085938 C 56.167969 95.085938 61.675781 89.082031 61.175781 91.078125 C 60.675781 93.078125 60.167969 106.554688 62.667969 107.054688 C 65.171875 107.554688 70.175781 107.054688 70.175781 107.054688 L 64.109375 126.472656 L 57.175781 127.027344 L 56.167969 132.03125 L 67.683594 132.03125 L 75.761719 106.933594 C 75.761719 106.933594 79.390625 106.414062 81.445312 105.292969 C 83.496094 104.175781 85.101562 102.195312 86.582031 100.722656 C 86.90625 103.222656 87.011719 105.191406 90.078125 106.777344 C 94.058594 108.835938 99.578125 107.351562 101.953125 105.542969 C 107.707031 109.285156 112.460938 104.800781 112.460938 104.800781 C 112.460938 104.800781 117.957031 109.792969 120.957031 104.800781 C 129.214844 110.292969 133.710938 104.570312 133.710938 104.570312 C 133.710938 104.570312 134.097656 107.265625 141.046875 107.734375 C 147.996094 108.203125 151.308594 101.480469 151.308594 101.480469 C 152.667969 103.203125 153.359375 106.867188 156.710938 107.226562 C 160.0625 107.585938 163.410156 105.441406 165.953125 102.792969 C 167.84375 106.351562 169.773438 106.628906 172.191406 107.488281 C 174.605469 108.347656 179.273438 105.785156 181.246094 104.429688 C 183.757812 108.945312 191.160156 108.613281 193.332031 105.25 C 193.363281 105.484375 193.917969 105.988281 196.847656 106.964844 C 198.007812 106.117188 198.335938 104.722656 199.722656 102.839844 C 198.472656 102.339844 195.949219 101.09375 195.949219 101.09375 C 195.203125 96.933594 192.964844 93.078125 190.578125 89.246094 L 193.085938 83.761719 L 188.085938 82.265625 C 185.003906 88.941406 182.40625 94.859375 180.332031 98.792969 C 178.257812 102.726562 170.578125 102.878906 169.078125 99.472656 C 179.128906 91.964844 180.242188 80.40625 171.570312 81.511719 C 163.542969 82.53125 164.269531 96.605469 164.269531 96.605469 C 164.269531 96.605469 161.316406 99.464844 157.316406 99.964844 C 153.3125 100.464844 158.585938 82.171875 158.585938 82.171875 L 153.089844 82.171875 C 153.089844 82.171875 149.78125 95.203125 145.816406 99.472656 C 142.242188 103.320312 140.695312 101.023438 139.71875 100.570312 C 138.703125 100.097656 150.988281 57.066406 150.988281 57.066406 L 143.972656 57.128906 L 136.636719 82.527344 C 132.632812 82.445312 128.132812 81.871094 124.132812 85.429688 C 118.753906 90.472656 120.832031 101.773438 114.613281 99.738281 C 112.609375 100.238281 118 84.535156 118 84.535156 C 117.636719 81.976562 109.714844 80.8125 105.773438 83.238281 C 97.957031 88.042969 98.667969 97.582031 97.199219 101.0625 C 93.734375 102.660156 92.773438 101.605469 91.40625 98.097656 C 97.164062 91.375 106.152344 57.539062 94.644531 57.039062 C 94.464844 57.03125 94.292969 57.03125 94.121094 57.039062 Z M 94.546875 65.113281 C 94.597656 65.105469 94.648438 65.109375 94.699219 65.113281 C 97.089844 65.308594 89.941406 88.335938 89.941406 88.335938 C 89.199219 88.089844 91.195312 65.582031 94.546875 65.113281 Z M 170.25 87.324219 C 171.390625 86.367188 172.222656 86.566406 172.402344 87.226562 C 172.582031 87.882812 168.09375 93.777344 168.09375 93.777344 C 168.117188 91.558594 169.109375 88.28125 170.25 87.324219 Z M 132.976562 88.648438 C 134.410156 88.609375 134.976562 88.402344 135.675781 88.9375 L 133.402344 98.992188 C 132.902344 100.511719 126.121094 101.738281 125.371094 98.265625 C 124.664062 95.011719 126.582031 92.464844 127.976562 90.71875 C 129.101562 89.308594 131.132812 88.699219 132.976562 88.648438 Z M 110.671875 88.929688 C 111.0625 88.921875 111.46875 88.984375 111.878906 89.128906 L 109.328125 98.285156 C 108.078125 100.03125 104.730469 100.785156 104.414062 98.234375 C 103.996094 94.917969 106.90625 89.003906 110.671875 88.929688 Z M 48.089844 88.9375 C 48.75 88.953125 49.34375 89.113281 49.808594 89.507812 C 52.285156 91.625 50.097656 98.980469 47.578125 100.660156 C 44.550781 102.679688 38.320312 101.261719 38.320312 101.261719 L 40.796875 91.734375 C 41.085938 91.734375 45.222656 88.875 48.089844 88.9375 Z M 188.503906 93.679688 C 188.503906 93.679688 191.519531 100.101562 190.980469 101.09375 C 189.628906 103.578125 184.878906 101.054688 185.144531 100.214844 Z M 188.503906 93.679688 "
     fill-opacity="1"
     fill-rule="nonzero"
     id="path1"
     style="fill:#ffffff" />
  <path
     fill="#fa023c"
     d="M 158.097656 70.234375 C 163.5 70.050781 163.183594 78.464844 157.742188 77.898438 C 153.84375 77.492188 152.695312 70.417969 158.097656 70.234375 Z M 158.097656 70.234375 "
     fill-opacity="1"
     fill-rule="nonzero"
     id="path2"
     style="fill:#ffffff" />
  <path
     fill="#fa023c"
     d="M 81.894531 82.015625 L 75.875 82.015625 L 76.769531 52.738281 L 80.996094 52.738281 Z M 81.894531 82.015625 "
     fill-opacity="1"
     fill-rule="evenodd"
     id="path3"
     style="fill:#ffffff" />
  <path
     fill="#fa023c"
     d="M 76.878906 50.214844 L 76.910156 50.222656 L 76.941406 50.234375 L 76.96875 50.242188 L 77 50.25 L 77.03125 50.261719 L 77.09375 50.277344 L 77.121094 50.285156 L 77.402344 50.355469 L 77.433594 50.359375 L 77.527344 50.382812 L 77.558594 50.386719 L 77.589844 50.394531 L 77.621094 50.398438 L 77.652344 50.40625 L 77.683594 50.410156 L 77.714844 50.417969 L 77.746094 50.421875 L 77.777344 50.429688 L 77.839844 50.4375 L 77.875 50.441406 L 77.90625 50.449219 L 78 50.460938 L 78.035156 50.464844 L 78.128906 50.476562 L 78.164062 50.480469 L 78.226562 50.488281 L 78.261719 50.488281 L 78.324219 50.496094 L 78.359375 50.5 L 78.390625 50.5 L 78.421875 50.503906 L 78.457031 50.503906 L 78.488281 50.507812 L 78.519531 50.507812 L 78.554688 50.511719 L 78.621094 50.511719 L 78.652344 50.515625 L 78.75 50.515625 L 78.785156 50.519531 L 78.984375 50.519531 L 79.015625 50.515625 L 79.117188 50.515625 L 79.148438 50.511719 L 79.214844 50.511719 L 79.246094 50.507812 L 79.28125 50.507812 L 79.3125 50.503906 L 79.347656 50.503906 L 79.378906 50.5 L 79.410156 50.5 L 79.445312 50.496094 L 79.507812 50.488281 L 79.542969 50.488281 L 79.636719 50.476562 L 79.671875 50.472656 L 79.765625 50.460938 L 79.800781 50.457031 L 79.863281 50.449219 L 79.894531 50.441406 L 79.925781 50.4375 L 79.960938 50.433594 L 79.992188 50.429688 L 80.023438 50.421875 L 80.054688 50.417969 L 80.085938 50.410156 L 80.117188 50.40625 L 80.148438 50.398438 L 80.179688 50.394531 L 80.210938 50.386719 L 80.242188 50.382812 L 80.335938 50.359375 L 80.367188 50.355469 L 80.617188 50.292969 L 80.644531 50.285156 L 80.738281 50.261719 L 80.769531 50.25 L 80.796875 50.242188 L 80.828125 50.234375 L 80.859375 50.222656 L 80.890625 50.214844 L 80.917969 50.203125 L 80.949219 51.210938 L 76.820312 51.210938 L 76.847656 50.203125 Z M 76.878906 50.214844 "
     fill-opacity="1"
     fill-rule="evenodd"
     id="path4"
     style="fill:#ffffff" />
  <path
     fill="#fa023c"
     d="M 85.574219 43.875 C 85.574219 44.3125 85.53125 44.746094 85.445312 45.171875 C 85.359375 45.601562 85.230469 46.015625 85.0625 46.417969 C 84.894531 46.820312 84.691406 47.203125 84.445312 47.566406 C 84.203125 47.929688 83.925781 48.265625 83.613281 48.574219 C 83.304688 48.882812 82.964844 49.15625 82.601562 49.398438 C 82.234375 49.640625 81.851562 49.84375 81.445312 50.011719 C 81.039062 50.179688 80.621094 50.304688 80.1875 50.390625 C 79.757812 50.476562 79.324219 50.519531 78.882812 50.519531 C 78.445312 50.519531 78.011719 50.476562 77.578125 50.390625 C 77.148438 50.304688 76.730469 50.179688 76.324219 50.011719 C 75.917969 49.84375 75.535156 49.640625 75.167969 49.398438 C 74.804688 49.15625 74.464844 48.882812 74.15625 48.574219 C 73.84375 48.265625 73.566406 47.929688 73.324219 47.566406 C 73.078125 47.203125 72.871094 46.820312 72.703125 46.417969 C 72.535156 46.015625 72.410156 45.601562 72.324219 45.171875 C 72.238281 44.746094 72.195312 44.3125 72.195312 43.875 C 72.195312 43.441406 72.238281 43.007812 72.324219 42.582031 C 72.410156 42.152344 72.535156 41.738281 72.703125 41.335938 C 72.871094 40.933594 73.078125 40.550781 73.324219 40.1875 C 73.566406 39.824219 73.84375 39.488281 74.15625 39.179688 C 74.464844 38.871094 74.804688 38.597656 75.167969 38.355469 C 75.535156 38.113281 75.917969 37.90625 76.324219 37.742188 C 76.730469 37.574219 77.148438 37.449219 77.578125 37.363281 C 78.011719 37.277344 78.445312 37.234375 78.882812 37.234375 C 79.324219 37.234375 79.757812 37.277344 80.1875 37.363281 C 80.621094 37.449219 81.039062 37.574219 81.445312 37.742188 C 81.851562 37.90625 82.234375 38.113281 82.601562 38.355469 C 82.964844 38.597656 83.304688 38.871094 83.613281 39.179688 C 83.925781 39.488281 84.203125 39.824219 84.445312 40.1875 C 84.691406 40.550781 84.894531 40.933594 85.0625 41.335938 C 85.230469 41.738281 85.359375 42.152344 85.445312 42.582031 C 85.53125 43.007812 85.574219 43.441406 85.574219 43.875 Z M 85.574219 43.875 "
     fill-opacity="1"
     fill-rule="nonzero"
     id="path5"
     style="fill:#ffffff" />
  <path
     fill="#fa023c"
     d="M 80.472656 37.425781 L 80.332031 37.390625 L 80.28125 37.378906 L 80.234375 37.371094 L 80.183594 37.359375 L 80.089844 37.34375 L 80.039062 37.332031 L 79.988281 37.324219 L 79.941406 37.316406 L 79.890625 37.308594 L 79.84375 37.300781 L 79.792969 37.296875 L 79.742188 37.289062 L 79.695312 37.28125 L 79.59375 37.273438 L 79.542969 37.265625 L 79.492188 37.261719 L 79.445312 37.257812 L 79.242188 37.242188 L 79.191406 37.242188 L 79.140625 37.238281 L 79.039062 37.238281 L 78.988281 37.234375 L 78.78125 37.234375 L 78.730469 37.238281 L 78.628906 37.238281 L 78.578125 37.242188 L 78.527344 37.242188 L 78.222656 37.265625 L 78.175781 37.273438 L 78.074219 37.28125 L 78.023438 37.289062 L 77.976562 37.296875 L 77.925781 37.300781 L 77.875 37.308594 L 77.828125 37.316406 L 77.777344 37.324219 L 77.730469 37.332031 L 77.679688 37.34375 L 77.632812 37.351562 L 77.582031 37.359375 L 77.535156 37.371094 L 77.484375 37.378906 L 77.390625 37.402344 L 77.339844 37.414062 L 77.292969 37.425781 L 77.292969 33.84375 L 80.472656 33.84375 Z M 80.472656 37.425781 "
     fill-opacity="1"
     fill-rule="evenodd"
     id="path6"
     style="fill:#ffffff" />
  <path
     fill="#fa023c"
     d="M 79.59375 33.84375 L 78.175781 33.84375 C 78.175781 33.84375 78.632812 5.84375 78.675781 3.167969 C 78.675781 3.050781 78.769531 2.960938 78.882812 2.960938 C 79 2.960938 79.089844 3.050781 79.09375 3.167969 C 79.136719 5.84375 79.59375 33.84375 79.59375 33.84375 Z M 79.59375 33.84375 "
     fill-opacity="1"
     fill-rule="evenodd"
     id="path7"
     style="fill:#ffffff" />
  <path
     fill="#fa023c"
     d="M 80.996094 52.738281 L 76.773438 52.738281 L 76.820312 51.210938 L 80.949219 51.210938 Z M 77.488281 51.898438 L 77.484375 52.050781 L 80.285156 52.050781 L 80.28125 51.898438 Z M 77.488281 51.898438 "
     fill-opacity="1"
     fill-rule="evenodd"
     id="path8"
     style="fill:#ffffff" />
  <path
     fill="#fa023c"
     d="M 81.785156 51.972656 C 81.785156 51.550781 81.441406 51.210938 81.019531 51.210938 L 76.75 51.210938 C 76.324219 51.210938 75.984375 51.550781 75.984375 51.972656 C 75.984375 52.394531 76.324219 52.738281 76.75 52.738281 L 81.019531 52.738281 C 81.441406 52.738281 81.785156 52.394531 81.785156 51.972656 Z M 81.785156 51.972656 "
     fill-opacity="1"
     fill-rule="evenodd"
     id="path9"
     style="fill:#ffffff" />
  <g
     fill="#38b6ff"
     fill-opacity="1"
     id="g12"
     style="fill:#954a60;fill-opacity:1">
    <g
       transform="translate(93.256955, 129.401152)"
       id="g11"
       style="fill:#954a60;fill-opacity:1">
      <g
         id="g10"
         style="fill:#954a60;fill-opacity:1">
        <path
           d="M 20.523438 -18.34375 C 20.058594 -21.660156 16.210938 -23.804688 11.050781 -23.082031 C 5.429688 -22.300781 -1.238281 -18.21875 -0.675781 -14.210938 C -0.46875 -12.730469 0.664062 -11.550781 1.785156 -11.707031 C 1.4375 -14.171875 4.789062 -17.789062 9.078125 -19.691406 C 6.878906 -16.472656 3.160156 -6.167969 3.542969 -3.410156 C 3.722656 -2.128906 4.914062 -1.289062 5.710938 -1.097656 C 6.644531 0.078125 8.214844 0.996094 10.742188 0.644531 C 14.128906 0.171875 18.71875 -2.710938 18.152344 -6.753906 C 17.882812 -8.695312 16.390625 -10.027344 14.039062 -10.535156 C 18.007812 -12.363281 20.976562 -15.089844 20.523438 -18.34375 Z M 8.621094 -10.71875 C 9.6875 -13.882812 11.015625 -17.082031 12.394531 -19.21875 C 12.484375 -19.296875 12.503906 -19.398438 12.488281 -19.5 C 12.441406 -19.828125 12.007812 -20.304688 11.46875 -20.5625 C 11.984375 -20.703125 12.539062 -20.8125 13.066406 -20.886719 C 16.320312 -21.339844 18.171875 -20.292969 18.390625 -18.746094 C 18.789062 -15.890625 13.683594 -12.128906 8.621094 -10.71875 Z M 15.527344 -7.5625 C 15.859375 -5.195312 12.300781 -2.351562 9.015625 -1.894531 C 7.503906 -1.683594 6.808594 -2.355469 6.683594 -3.246094 C 6.664062 -3.375 6.679688 -3.511719 6.6875 -3.679688 C 6.914062 -4.953125 7.316406 -6.617188 7.878906 -8.371094 C 9 -8.726562 10.070312 -8.976562 11.023438 -9.109375 C 13.554688 -9.464844 15.328125 -9.007812 15.527344 -7.5625 Z M 15.527344 -7.5625 "
           id="path10"
           style="fill:#954a60;fill-opacity:1" />
      </g>
    </g>
  </g>
  <g
     fill="#38b6ff"
     fill-opacity="1"
     id="g15"
     style="fill:#954a60;fill-opacity:1">
    <g
       transform="translate(113.102715, 126.631288)"
       id="g14"
       style="fill:#954a60;fill-opacity:1">
      <g
         id="g13"
         style="fill:#954a60;fill-opacity:1">
        <path
           d="M 14.164062 -10.855469 C 11.660156 -5.75 7.890625 -2.507812 5.625 -2.191406 C 4.539062 -2.039062 3.984375 -2.667969 3.859375 -3.554688 L 3.84375 -3.652344 C 7.628906 -5.351562 11.664062 -10.773438 11.28125 -13.5 C 11.074219 -14.980469 9.507812 -16.132812 7.863281 -15.90625 C 3.988281 -15.363281 0.00390625 -7.171875 0.558594 -3.195312 C 0.894531 -0.792969 3.011719 0.683594 5.375 0.355469 C 8.367188 -0.0625 11.710938 -2.976562 15.203125 -10.128906 C 15.140625 -10.589844 14.492188 -10.902344 14.164062 -10.855469 Z M 8.800781 -13.757812 C 9.195312 -13.8125 9.386719 -13.636719 9.4375 -13.277344 C 9.660156 -11.667969 6.53125 -6.742188 3.941406 -5.375 C 4.476562 -8.730469 7.027344 -13.511719 8.800781 -13.757812 Z M 8.800781 -13.757812 "
           id="path12"
           style="fill:#954a60;fill-opacity:1" />
      </g>
    </g>
  </g>
  <g
     fill="#38b6ff"
     fill-opacity="1"
     id="g18"
     style="fill:#954a60;fill-opacity:1">
    <g
       transform="translate(125.029884, 124.966619)"
       id="g17"
       style="fill:#954a60;fill-opacity:1">
      <g
         id="g16"
         style="fill:#954a60;fill-opacity:1">
        <path
           d="M 14.03125 -10.835938 C 13.050781 -8.757812 9.835938 -2.980469 8.125 -2.742188 C 7.832031 -2.699219 7.675781 -2.847656 7.640625 -3.109375 C 7.441406 -4.523438 10.207031 -9.667969 9.933594 -11.636719 C 9.664062 -13.578125 6.347656 -13.316406 6.242188 -14.070312 C 6.199219 -14.398438 6.691406 -15.171875 7.410156 -16.042969 C 7.664062 -16.613281 5.855469 -17.566406 5.132812 -17.46875 C 4.179688 -17.335938 3.1875 -15.554688 3.359375 -14.339844 C 3.414062 -13.945312 3.585938 -13.667969 3.820312 -13.429688 C 3.492188 -12.179688 2.902344 -10.65625 2.234375 -9.191406 C 2.292969 -8.761719 2.878906 -8.410156 3.273438 -8.464844 C 4.011719 -10.140625 4.617188 -11.566406 5.117188 -12.773438 C 5.859375 -12.511719 6.566406 -12.238281 6.660156 -11.582031 C 6.882812 -9.972656 3.75 -5.78125 4.15625 -2.859375 C 4.414062 -1.019531 6.027344 0.230469 7.476562 0.0273438 C 9.710938 -0.28125 12.269531 -4.257812 15.070312 -10.109375 C 15.007812 -10.570312 14.359375 -10.882812 14.03125 -10.835938 Z M 14.03125 -10.835938 "
           id="path15"
           style="fill:#954a60;fill-opacity:1" />
      </g>
    </g>
  </g>
  <g
     fill="#38b6ff"
     fill-opacity="1"
     id="g21"
     style="fill:#954a60;fill-opacity:1">
    <g
       transform="translate(136.825632, 123.320292)"
       id="g20"
       style="fill:#954a60;fill-opacity:1">
      <g
         id="g19"
         style="fill:#954a60;fill-opacity:1">
        <path
           d="M 3.9375 0.355469 C 6.730469 -0.0351562 9.699219 -7.082031 10.800781 -9.515625 C 10.734375 -9.972656 10.089844 -10.285156 9.761719 -10.238281 C 7.585938 -5.648438 5.714844 -2.507812 4.597656 -2.351562 C 4.269531 -2.304688 4.03125 -2.574219 3.957031 -3.097656 C 3.503906 -6.351562 8.195312 -19.300781 9.796875 -20.53125 C 9.921875 -20.613281 9.972656 -20.722656 9.957031 -20.820312 C 9.878906 -21.378906 8.679688 -22.316406 7.558594 -22.160156 C 5.882812 -21.925781 0.226562 -6.53125 0.792969 -2.488281 C 1.03125 -0.78125 2.589844 0.542969 3.9375 0.355469 Z M 3.9375 0.355469 "
           id="path18"
           style="fill:#954a60;fill-opacity:1" />
      </g>
    </g>
  </g>
  <g
     fill="#38b6ff"
     fill-opacity="1"
     id="g24"
     style="fill:#954a60;fill-opacity:1">
    <g
       transform="translate(144.34994, 122.270128)"
       id="g23"
       style="fill:#954a60;fill-opacity:1">
      <g
         id="g22"
         style="fill:#954a60;fill-opacity:1">
        <path
           d="M 7.371094 -16.070312 C 7.671875 -17.050781 8.796875 -19.789062 10.089844 -20.839844 C 10.183594 -20.886719 10.242188 -20.960938 10.226562 -21.058594 C 10.164062 -21.519531 8.898438 -22.414062 7.683594 -22.246094 C 6.269531 -22.046875 5.328125 -19.4375 5.519531 -18.058594 C 5.734375 -16.511719 6.886719 -15.9375 7.371094 -16.070312 Z M 4.183594 0.21875 C 6.78125 -0.140625 9.664062 -7.078125 10.800781 -9.515625 C 10.734375 -9.972656 10.089844 -10.285156 9.761719 -10.238281 C 7.519531 -5.640625 5.941406 -2.804688 4.722656 -2.636719 C 4.328125 -2.582031 4.117188 -2.917969 4.046875 -3.414062 C 3.734375 -5.648438 5.796875 -11.765625 6.917969 -12.589844 C 7.039062 -12.707031 7.054688 -12.8125 7.039062 -12.941406 C 6.941406 -13.632812 5.734375 -14.367188 4.550781 -14.203125 C 3.300781 -14.027344 0.273438 -5.96875 0.71875 -2.78125 C 1.007812 -0.710938 2.96875 0.390625 4.183594 0.21875 Z M 4.183594 0.21875 "
           id="path21"
           style="fill:#954a60;fill-opacity:1" />
      </g>
    </g>
  </g>
  <g
     fill="#38b6ff"
     fill-opacity="1"
     id="g27"
     style="fill:#954a60;fill-opacity:1">
    <g
       transform="translate(151.874247, 121.219964)"
       id="g26"
       style="fill:#954a60;fill-opacity:1">
      <g
         id="g25"
         style="fill:#954a60;fill-opacity:1">
        <path
           d="M 2.964844 0.589844 C 3.292969 0.546875 3.480469 0.453125 3.484375 0.25 C 4.742188 -5.386719 9.511719 -12.984375 10.859375 -13.175781 C 10.988281 -13.191406 11.066406 -13.136719 11.078125 -13.039062 C 11.203125 -12.148438 8.089844 -7.328125 8.492188 -4.433594 C 8.753906 -2.5625 10.421875 -1.1875 11.800781 -1.378906 C 13.675781 -1.640625 16.558594 -4.992188 19.113281 -10.675781 C 19.050781 -11.132812 18.402344 -11.445312 18.074219 -11.402344 C 16.066406 -7.300781 13.683594 -4.457031 12.597656 -4.304688 C 12.269531 -4.257812 12.078125 -4.433594 12.019531 -4.859375 C 11.78125 -6.570312 13.960938 -11.832031 14.847656 -13.394531 C 15 -13.515625 15.003906 -13.71875 14.972656 -13.949219 C 14.84375 -14.871094 13.5625 -16.132812 11.6875 -15.871094 C 9.585938 -15.574219 5.648438 -9.230469 3.875 -4.628906 L 3.636719 -4.660156 C 4.398438 -8.320312 6.289062 -13.039062 6.746094 -13.101562 C 6.835938 -13.183594 6.882812 -13.324219 6.871094 -13.421875 C 6.785156 -14.046875 5.558594 -14.914062 4.570312 -14.777344 C 2.929688 -14.546875 -0.0195312 -3.75 0.324219 -1.285156 C 0.519531 0.128906 2.140625 0.707031 2.964844 0.589844 Z M 2.964844 0.589844 "
           id="path24"
           style="fill:#954a60;fill-opacity:1" />
      </g>
    </g>
  </g>
</svg>
