<svg xmlns="http://www.w3.org/2000/svg" viewBox="0 0 1174.34 855.3"><defs><style>.cls-1,.cls-2{fill:#fff;}.cls-2{fill-opacity:0.22;}</style></defs><title>Asset 1</title><g id="Layer_2" data-name="Layer 2"><g id="pyladies_turm_logo071_Image" data-name="pyladies_turm_logo071 Image"><g id="script"><g id="pyladies"><path id="path2841-2-0-9" class="cls-1" d="M476,358.36C403.68,362.13,413.62,584,413.62,584s-3.07,24.49-13.41,38.59-27.66,24.18-32,19.76c0,0,28.21-77.26,26.92-118.53,0-.07-39.71,0-39.71,0,0,26.8-21.16,118.65-44.32,123S294.48,627,294.48,602.16c0-36.54,5-76.62-21.49-79.92s-54.66,41.87-54.66,41.87,3.34-26.48-23.13-39.71-92.63,19.86-92.63,19.86c6.16-27.95-5-63.19-36.44-62.85-27.74,1.67-47.29,21-66.12,36.33l26.51,26.51S52.89,514.49,66.12,531s-50.95,323.7-50.95,323.7H54.89L92.63,696.45s86,6.65,102.56-13.2S225,610.47,225,610.47s36.42-39.78,33.11-26.54S251.43,686.48,268,689.79s49.64,0,49.64,0L277.49,818.45l-45.86,3.68L225,855.3h76.15L354.56,689s24-3.44,37.57-10.85,24.19-20.53,34-30.3c2.16,16.58,2.84,29.61,23.13,40.12,26.3,13.63,62.82,3.8,78.51-8.19,38.05,24.81,69.5-4.91,69.5-4.91s36.34,33.09,56.19,0c54.59,36.4,84.34-1.54,84.34-1.54s2.56,17.88,48.52,21,67.86-41.46,67.86-41.46c9,11.41,13.56,35.7,35.72,38.08S934.2,679.11,951,661.54c12.51,23.57,25.26,25.41,41.25,31.12s46.84-11.3,59.88-20.27c16.63,29.93,65.57,27.71,79.94,5.42.2,1.57,3.88,4.91,23.24,11.36,7.67-5.6,9.85-14.84,19-27.33-8.27-3.31-25-11.57-25-11.57-4.92-27.56-19.74-53.12-35.52-78.51l16.58-36.33-33.06-9.93C1077,569.74,1059.81,609,1046.09,635s-64.49,27.08-74.41,4.5c66.47-49.75,73.84-126.34,16.48-119-53.08,6.77-48.29,100-48.29,100s-19.52,19-46,22.28,8.39-117.92,8.39-117.92H865.94s-21.87,86.34-48.11,114.64C794.19,665,784,649.82,777.5,646.8,770.8,643.67,852,358.53,852,358.53l-46.4.42-48.5,168.31c-26.47-.54-56.24-4.34-82.7,19.24-35.57,33.42-21.82,108.29-62.95,94.82-13.24,3.31,22.41-100.76,22.41-100.76C631.47,523.61,579.1,515.9,553,532c-51.71,31.85-47,95.06-56.71,118.12-22.91,10.59-29.26,3.59-38.32-19.65,38.08-44.54,97.53-268.76,21.43-272.07C478.25,358.31,477.11,358.3,476,358.36Zm2.81,53.5a4.47,4.47,0,0,1,1,0c15.81,1.28-31.48,153.88-31.48,153.88C443.42,564.11,456.63,415,478.77,411.86ZM979.42,559c7.55-6.35,13-5,14.23-.66s-28.5,43.41-28.5,43.41C965.31,587.11,971.87,565.39,979.42,559Zm-246.5,8.78c9.48-.27,13.22-1.63,17.86,1.91l-15,66.64c-3.31,10.06-48.16,18.2-53.12-4.81-4.65-21.58,8-38.44,17.25-50C707.31,572.19,720.74,568.16,732.92,567.82Zm-147.49,1.86a22.77,22.77,0,0,1,8,1.33l-16.89,60.67c-8.27,11.58-30.39,16.56-32.5-.32C541.28,609.36,560.53,570.17,585.43,569.67Zm-413.88.05c4.38.09,8.29,1.16,11.36,3.79,16.38,14,1.92,62.77-14.74,73.9-20,13.38-61.21,4-61.21,4l16.38-63.15C125.24,588.26,152.59,569.32,171.55,569.73Zm928.58,31.42s19.95,42.55,16.38,49.13c-8.93,16.47-40.35-.26-38.59-5.83Z"/><path id="path2915-9-9-9" class="cls-1" d="M899,445.78c35.74-1.22,33.64,54.56-2.36,50.8C870.93,493.88,863.31,447,899,445.78Z"/></g><g id="tower"><path class="cls-1" d="M395.11,523.85H355.3l5.94-194h27.94ZM365.66,334.42,360,519.29h30.4l-5.66-184.87Z"/><path class="cls-1" d="M361.95,313.13l.2.06.2.06.2.06.2.06.2.06.2.06.2.06.2.05.2.05.2.05.2.05.2.05.2.05.2,0,.2,0,.21,0,.2,0,.21,0,.21,0,.21,0,.21,0,.21,0,.21,0,.21,0,.21,0,.21,0,.21,0,.21,0,.21,0,.21,0,.21,0,.21,0,.21,0,.21,0,.21,0,.21,0,.21,0,.21,0,.21,0,.21,0,.21,0,.21,0,.22,0,.21,0,.22,0,.22,0,.22,0,.22,0,.22,0h6.11l.22,0,.22,0,.22,0,.22,0,.21,0,.22,0,.21,0,.21,0,.21,0,.21,0,.21,0,.21,0,.21,0,.21,0,.21,0,.21,0,.21,0,.21,0,.21,0,.21,0,.21,0,.21,0,.21,0,.21,0,.21,0,.21,0,.21,0,.21,0,.21,0,.21,0,.21,0,.21,0,.21,0,.2,0,.2,0,.2,0,.2-.05.2-.05.2-.05.2-.05.2-.05.2-.05.2-.06.2-.06.2-.06.2-.06.2-.06.2-.06.2-.06.2-.06.2,6.66H361.54l.2-6.66Z"/><ellipse class="cls-1" cx="375.21" cy="271.13" rx="44.23" ry="44.01"/><path class="cls-1" d="M385.72,228.37l-.32-.08-.32-.07-.32-.07-.32-.07-.32-.07-.32-.06-.32-.06-.32-.06-.32-.06-.32-.06-.32-.05-.33-.05-.33,0-.33,0-.33,0-.33,0-.33,0-.33,0-.33,0-.33,0-.33,0-.33,0-.33,0-.33,0-.34,0-.34,0h-4.06l-.34,0-.34,0-.33,0-.33,0-.33,0-.33,0-.33,0-.33,0-.33,0-.33,0-.33,0-.33,0-.33,0-.33,0-.33.05-.32.05-.32.06-.32.06-.32.06-.32.06-.32.06-.32.07-.32.07-.32.07-.32.07-.32.08V204.66h21Zm-16.47-19.15v13.68h.05l.36,0,.36,0,.36,0,.37,0,.37,0,.37,0,.37,0,.37,0,.37,0,.37,0,.37,0h3.72l.37,0,.37,0,.37,0,.37,0,.37,0,.37,0,.37,0,.37,0,.36,0,.36,0,.36,0h.05V209.23Z"/><path class="cls-1" d="M379.89,204.66h-9.38s3-185.55,3.31-203.3A1.38,1.38,0,0,1,375.2,0h0a1.38,1.38,0,0,1,1.38,1.36C376.88,19.11,379.89,204.66,379.89,204.66Z"/><path class="cls-2" d="M389.17,329.85H361.23l.31-10.13h27.32ZM366,324.29l0,1h18.52l0-1Z"/><path class="cls-1" d="M394.39,324.79a5.07,5.07,0,0,0-5.06-5.06H361.08a5.06,5.06,0,1,0,0,10.13h28.24A5.07,5.07,0,0,0,394.39,324.79Z"/></g></g></g><g id="PyLogo"><g id="berlin"><path class="cls-1" d="M420.53,816.66q-10.2-.63-15.23-7.91l-1.05,7H389.47v-2.64a22.07,22.07,0,0,0,5.74-.53q3-.95,3-5.8v-57h-8.79v-2.64H407v34.91a10.62,10.62,0,0,1,.94-1.9q5.39-10.34,18.16-10.34a18.73,18.73,0,0,1,13,4.75q7,6.54,7,18.14,0,10.34-6.56,17.09a23.69,23.69,0,0,1-17.34,7A16,16,0,0,1,420.53,816.66ZM414,777q-7,5.7-7,18.46a27.6,27.6,0,0,0,1.76,10.23q3.63,8.44,12.42,8.44a14,14,0,0,0,6.21-1.37q8.9-4.43,8.91-19.3a30.84,30.84,0,0,0-1.17-8.86Q432.13,774,422.52,774A13.45,13.45,0,0,0,414,777Z"/><path class="cls-1" d="M588.81,808.53q-6,8.23-18.63,8.23A27.21,27.21,0,0,1,556,813.07q-10.43-6.33-10.43-19.41a25.3,25.3,0,0,1,3.28-12.87q6.33-11,21-11a27.75,27.75,0,0,1,13.24,3.06q8.09,4.22,8.09,11.39a6.8,6.8,0,0,1-3.16,6q-4.1,2.64-18.4,2.43l-14.06-.21a36.85,36.85,0,0,0,1.05,8.12q3.16,13.19,15.47,13.18,1.05,0,2.23-.11a16.07,16.07,0,0,0,13.24-9.07l2.93.95A27.9,27.9,0,0,1,588.81,808.53Zm-24.49-34.8q-8.2,3.69-8.79,15.82l12.42.32a44.87,44.87,0,0,0,8.32-.42q5.63-1.16,5.63-6.43a10.1,10.1,0,0,0-.94-4.32q-2.7-6.22-10.9-6.22A13.34,13.34,0,0,0,564.31,773.73Z"/><path class="cls-1" d="M716.19,813.17q1.76.21,1.76,2.53H689v-2.64a22.07,22.07,0,0,0,5.74-.53q3-.95,3-5.8V773.52H689v-2.64h17l.47,10.44a20.21,20.21,0,0,1,4.1-5.7,17.47,17.47,0,0,1,12.54-5.38,12.64,12.64,0,0,1,2.23.21q5.39,1.06,5.39,5.8a3.64,3.64,0,0,1-.23,1.27q-.94,3.06-4.45,3.06a4.84,4.84,0,0,1-1.41-.21Q723,780,721.11,777q-1.64-2.64-3.63-2.64-1.76.11-4.34,2.32-6.56,5.8-6.56,15.4v21H715A5.53,5.53,0,0,1,716.19,813.17Z"/><path class="cls-1" d="M850.25,813.17q1.76.21,1.76,2.53H825.17v-2.64a22.07,22.07,0,0,0,5.74-.53q3-.95,3-5.8v-57h-8.79v-2.64h17.58v65.92h6.33A5.53,5.53,0,0,1,850.25,813.17Z"/><path class="cls-1" d="M973.89,813.17q1.76.21,1.76,2.53h-27v-2.64a27.41,27.41,0,0,0,5.74-.42q3.63-1.05,3.63-5.91V773.52h-9.37v-2.64h18.16v42.19h5.86A6.71,6.71,0,0,1,973.89,813.17Zm-6.21-55.27a5.85,5.85,0,0,1-5.74,3.38,8.22,8.22,0,0,1-2.58-.42,5.38,5.38,0,0,1-3.87-5.38,5.3,5.3,0,0,1,.59-2.43,6.09,6.09,0,0,1,5.86-3.37,7.68,7.68,0,0,1,2.7.53,5.42,5.42,0,0,1,3.63,5.27A5.32,5.32,0,0,1,967.67,757.91Z"/><path class="cls-1" d="M1096.7,813.17q1.76.21,1.76,2.53h-25.78v-2.64a22.07,22.07,0,0,0,5.74-.53q3-.95,3-5.8V773.52h-8.79v-2.64h17l.47,10.55a20.89,20.89,0,0,1,3.4-5.38,18.43,18.43,0,0,1,14.3-6.22,16.91,16.91,0,0,1,8.09,2q8.09,4.54,8.09,15.08v26.16h5.86a5.53,5.53,0,0,1,1.17.11q1.76.21,1.76,2.53h-26.37v-2.64a22.07,22.07,0,0,0,5.74-.53q3-.95,3-5.8V785.86a13.63,13.63,0,0,0-1.05-5.48q-2.58-6-9.73-6a12.94,12.94,0,0,0-6.45,1.79q-7.38,4.33-7.73,14.13v22.78h5.27A5.53,5.53,0,0,1,1096.7,813.17Z"/></g></g></g></svg>