<?xml version="1.0" standalone="no"?><!-- Generator: Gravit.io --><svg xmlns="http://www.w3.org/2000/svg" xmlns:xlink="http://www.w3.org/1999/xlink" style="isolation:isolate" viewBox="0 0 600 600" width="600" height="600"><clipPath id="_clipPath_tymBwzCuxukZJIJObKsmehYLi7LjeS7O"><rect x="0" y="0" width="600" height="600" transform="matrix(1,0,0,1,0,0)" fill="rgb(255,255,255)"/></clipPath><g clip-path="url(#_clipPath_tymBwzCuxukZJIJObKsmehYLi7LjeS7O)"><g id="null"><g id="logo-background"><linearGradient id="_lgradient_2" x1="0%" y1="50%" x2="70.69299381834155%" y2="120.72835799734025%"><stop offset="0%" stop-opacity="1" style="stop-color:rgb(72,110,122)"/><stop offset="100%" stop-opacity="1" style="stop-color:rgb(40,85,99)"/></linearGradient><rect x="0.15" y="0" width="599.7" height="600" transform="matrix(0,-1,1,0,0,600)" fill="url(#_lgradient_2)"/></g></g></g><path d=" M 215.337 435.14 L 193.786 435.14 L 193.786 368.236 L 211.385 368.236 L 211.385 368.236 Q 222.183 368.236 227.72 372.624 L 227.72 372.624 L 227.72 372.624 Q 233.257 377.013 233.257 385.376 L 233.257 385.376 L 233.257 385.376 Q 233.257 391.441 230.179 395.439 L 230.179 395.439 L 230.179 395.439 Q 227.1 399.436 221.494 400.539 L 221.494 400.539 L 221.494 400.539 Q 227.835 401.366 232.063 406.03 L 232.063 406.03 L 232.063 406.03 Q 236.29 410.694 236.29 416.714 L 236.29 416.714 L 236.29 416.714 Q 236.29 425.26 230.753 430.2 L 230.753 430.2 L 230.753 430.2 Q 225.216 435.14 215.337 435.14 L 215.337 435.14 Z  M 216.577 402.101 L 196.267 402.101 L 196.267 432.658 L 215.612 432.658 L 215.612 432.658 Q 224.113 432.658 228.961 428.454 L 228.961 428.454 L 228.961 428.454 Q 233.809 424.249 233.809 416.805 L 233.809 416.805 L 233.809 416.805 Q 233.809 410.464 229.122 406.352 L 229.122 406.352 L 229.122 406.352 Q 224.435 402.239 216.577 402.101 L 216.577 402.101 Z  M 196.267 370.717 L 196.267 399.62 L 212.304 399.62 L 212.304 399.62 Q 221.448 399.62 226.089 396.105 L 226.089 396.105 L 226.089 396.105 Q 230.73 392.59 230.73 385.192 L 230.73 385.192 L 230.73 385.192 Q 230.73 370.947 211.936 370.717 L 211.936 370.717 L 196.267 370.717 Z  M 253.062 368.236 L 253.062 432.658 L 287.387 432.658 L 287.387 435.14 L 250.535 435.14 L 250.535 368.236 L 253.062 368.236 Z  M 346.479 396.679 L 346.479 406.696 L 346.479 406.696 Q 346.479 415.381 343.377 422.067 L 343.377 422.067 L 343.377 422.067 Q 340.275 428.753 334.532 432.406 L 334.532 432.406 L 334.532 432.406 Q 328.788 436.059 321.298 436.059 L 321.298 436.059 L 321.298 436.059 Q 309.994 436.059 303.01 428.017 L 303.01 428.017 L 303.01 428.017 Q 296.025 419.976 296.025 406.329 L 296.025 406.329 L 296.025 396.679 L 296.025 396.679 Q 296.025 388.041 299.127 381.332 L 299.127 381.332 L 299.127 381.332 Q 302.229 374.623 307.995 370.97 L 307.995 370.97 L 307.995 370.97 Q 313.762 367.317 321.206 367.317 L 321.206 367.317 L 321.206 367.317 Q 328.696 367.317 334.463 370.97 L 334.463 370.97 L 334.463 370.97 Q 340.229 374.623 343.354 381.355 L 343.354 381.355 L 343.354 381.355 Q 346.479 388.087 346.479 396.679 L 346.479 396.679 Z  M 343.997 406.329 L 343.997 396.587 L 343.997 396.587 Q 343.997 384.456 337.84 377.127 L 337.84 377.127 L 337.84 377.127 Q 331.683 369.798 321.206 369.798 L 321.206 369.798 L 321.206 369.798 Q 310.867 369.798 304.71 377.081 L 304.71 377.081 L 304.71 377.081 Q 298.553 384.365 298.553 396.909 L 298.553 396.909 L 298.553 406.696 L 298.553 406.696 Q 298.553 414.692 301.333 420.826 L 301.333 420.826 L 301.333 420.826 Q 304.113 426.96 309.259 430.269 L 309.259 430.269 L 309.259 430.269 Q 314.405 433.577 321.298 433.577 L 321.298 433.577 L 321.298 433.577 Q 331.775 433.577 337.886 426.271 L 337.886 426.271 L 337.886 426.271 Q 343.997 418.965 343.997 406.329 L 343.997 406.329 Z  M 408.925 404.812 L 408.925 427.971 L 408.925 427.971 Q 406.398 431.464 400.057 433.761 L 400.057 433.761 L 400.057 433.761 Q 393.715 436.059 386.088 436.059 L 386.088 436.059 L 386.088 436.059 Q 378.644 436.059 372.808 432.429 L 372.808 432.429 L 372.808 432.429 Q 366.972 428.798 363.687 422.182 L 363.687 422.182 L 363.687 422.182 Q 360.402 415.565 360.31 407.202 L 360.31 407.202 L 360.31 395.714 L 360.31 395.714 Q 360.31 387.489 363.48 380.964 L 363.48 380.964 L 363.48 380.964 Q 366.651 374.439 372.395 370.878 L 372.395 370.878 L 372.395 370.878 Q 378.138 367.317 385.307 367.317 L 385.307 367.317 L 385.307 367.317 Q 395.278 367.317 401.55 372.418 L 401.55 372.418 L 401.55 372.418 Q 407.822 377.518 408.833 386.34 L 408.833 386.34 L 406.352 386.34 L 406.352 386.34 Q 405.111 378.345 399.689 374.072 L 399.689 374.072 L 399.689 374.072 Q 394.267 369.798 385.307 369.798 L 385.307 369.798 L 385.307 369.798 Q 375.198 369.798 368.994 377.013 L 368.994 377.013 L 368.994 377.013 Q 362.791 384.227 362.791 395.99 L 362.791 395.99 L 362.791 406.65 L 362.791 406.65 Q 362.791 414.508 365.709 420.665 L 365.709 420.665 L 365.709 420.665 Q 368.627 426.823 373.934 430.2 L 373.934 430.2 L 373.934 430.2 Q 379.241 433.577 386.088 433.577 L 386.088 433.577 L 386.088 433.577 Q 392.796 433.577 398.54 431.601 L 398.54 431.601 L 398.54 431.601 Q 404.284 429.626 406.444 426.823 L 406.444 426.823 L 406.444 407.34 L 385.996 407.34 L 385.996 404.812 L 408.925 404.812 Z  M 120.909 324.859 L 116.268 311.074 L 92.098 311.074 L 87.503 324.859 L 72.845 324.859 L 97.75 257.956 L 110.524 257.956 L 135.567 324.859 L 120.909 324.859 Z  M 104.137 274.865 L 95.82 299.908 L 112.546 299.908 L 104.137 274.865 Z  M 182.942 257.956 L 193.924 305.56 L 202.93 257.956 L 216.669 257.956 L 201.827 324.859 L 187.95 324.859 L 177.06 280.104 L 166.17 324.859 L 152.293 324.859 L 137.451 257.956 L 151.19 257.956 L 160.242 305.468 L 171.27 257.956 L 182.942 257.956 Z  M 264.366 285.066 L 264.366 295.864 L 237.898 295.864 L 237.898 313.785 L 268.961 313.785 L 268.961 324.859 L 224.113 324.859 L 224.113 257.956 L 268.869 257.956 L 268.869 269.121 L 237.898 269.121 L 237.898 285.066 L 264.366 285.066 Z  M 311.74 307.306 L 311.74 307.306 L 311.74 307.306 Q 311.74 303.4 308.983 301.31 L 308.983 301.31 L 308.983 301.31 Q 306.226 299.219 299.058 296.898 L 299.058 296.898 L 299.058 296.898 Q 291.89 294.578 287.708 292.326 L 287.708 292.326 L 287.708 292.326 Q 276.313 286.169 276.313 275.738 L 276.313 275.738 L 276.313 275.738 Q 276.313 270.316 279.368 266.066 L 279.368 266.066 L 279.368 266.066 Q 282.424 261.815 288.145 259.426 L 288.145 259.426 L 288.145 259.426 Q 293.866 257.037 300.988 257.037 L 300.988 257.037 L 300.988 257.037 Q 308.156 257.037 313.762 259.633 L 313.762 259.633 L 313.762 259.633 Q 319.368 262.229 322.47 266.962 L 322.47 266.962 L 322.47 266.962 Q 325.571 271.695 325.571 277.714 L 325.571 277.714 L 311.786 277.714 L 311.786 277.714 Q 311.786 273.119 308.891 270.569 L 308.891 270.569 L 308.891 270.569 Q 305.997 268.019 300.758 268.019 L 300.758 268.019 L 300.758 268.019 Q 295.704 268.019 292.901 270.155 L 292.901 270.155 L 292.901 270.155 Q 290.098 272.292 290.098 275.784 L 290.098 275.784 L 290.098 275.784 Q 290.098 279.047 293.383 281.252 L 293.383 281.252 L 293.383 281.252 Q 296.669 283.458 303.056 285.388 L 303.056 285.388 L 303.056 285.388 Q 314.819 288.926 320.195 294.164 L 320.195 294.164 L 320.195 294.164 Q 325.571 299.403 325.571 307.214 L 325.571 307.214 L 325.571 307.214 Q 325.571 315.899 319 320.838 L 319 320.838 L 319 320.838 Q 312.43 325.778 301.31 325.778 L 301.31 325.778 L 301.31 325.778 Q 293.59 325.778 287.249 322.952 L 287.249 322.952 L 287.249 322.952 Q 280.908 320.126 277.576 315.21 L 277.576 315.21 L 277.576 315.21 Q 274.245 310.293 274.245 303.814 L 274.245 303.814 L 288.076 303.814 L 288.076 303.814 Q 288.076 314.888 301.31 314.888 L 301.31 314.888 L 301.31 314.888 Q 306.226 314.888 308.983 312.889 L 308.983 312.889 L 308.983 312.889 Q 311.74 310.89 311.74 307.306 Z  M 389.856 289.937 L 389.856 292.924 L 389.856 292.924 Q 389.856 302.803 386.363 310.247 L 386.363 310.247 L 386.363 310.247 Q 382.871 317.691 376.369 321.734 L 376.369 321.734 L 376.369 321.734 Q 369.867 325.778 361.458 325.778 L 361.458 325.778 L 361.458 325.778 Q 353.141 325.778 346.616 321.78 L 346.616 321.78 L 346.616 321.78 Q 340.092 317.783 336.507 310.362 L 336.507 310.362 L 336.507 310.362 Q 332.923 302.941 332.877 293.291 L 332.877 293.291 L 332.877 289.983 L 332.877 289.983 Q 332.877 280.104 336.439 272.591 L 336.439 272.591 L 336.439 272.591 Q 340 265.078 346.502 261.057 L 346.502 261.057 L 346.502 261.057 Q 353.004 257.037 361.367 257.037 L 361.367 257.037 L 361.367 257.037 Q 369.729 257.037 376.231 261.057 L 376.231 261.057 L 376.231 261.057 Q 382.733 265.078 386.295 272.591 L 386.295 272.591 L 386.295 272.591 Q 389.856 280.104 389.856 289.937 L 389.856 289.937 Z  M 375.887 293.153 L 375.887 289.891 L 375.887 289.891 Q 375.887 279.368 372.119 273.9 L 372.119 273.9 L 372.119 273.9 Q 368.351 268.432 361.367 268.432 L 361.367 268.432 L 361.367 268.432 Q 354.428 268.432 350.66 273.831 L 350.66 273.831 L 350.66 273.831 Q 346.892 279.231 346.846 289.661 L 346.846 289.661 L 346.846 292.924 L 346.846 292.924 Q 346.846 303.171 350.614 308.822 L 350.614 308.822 L 350.614 308.822 Q 354.382 314.474 361.458 314.474 L 361.458 314.474 L 361.458 314.474 Q 368.397 314.474 372.119 309.029 L 372.119 309.029 L 372.119 309.029 Q 375.841 303.584 375.887 293.153 L 375.887 293.153 Z  M 399.873 257.956 L 417.885 257.956 L 435.071 306.479 L 452.164 257.956 L 470.269 257.956 L 470.269 324.859 L 456.438 324.859 L 456.438 306.571 L 457.816 275.003 L 439.758 324.859 L 430.292 324.859 L 412.279 275.049 L 413.658 306.571 L 413.658 324.859 L 399.873 324.859 L 399.873 257.956 Z  M 522.56 285.066 L 522.56 295.864 L 496.093 295.864 L 496.093 313.785 L 527.155 313.785 L 527.155 324.859 L 482.307 324.859 L 482.307 257.956 L 527.063 257.956 L 527.063 269.121 L 496.093 269.121 L 496.093 285.066 L 522.56 285.066 Z  M 279.713 181.494 L 279.713 214.579 L 277.232 214.579 L 277.232 181.173 L 277.232 181.173 Q 277.186 173.683 273.946 170.03 L 273.946 170.03 L 273.946 170.03 Q 270.707 166.377 263.63 166.377 L 263.63 166.377 L 263.63 166.377 Q 255.451 166.377 250.259 173.591 L 250.259 173.591 L 250.259 173.591 Q 247.18 177.91 246.169 183.149 L 246.169 183.149 L 246.169 214.579 L 243.642 214.579 L 243.642 164.86 L 246.169 164.86 L 246.169 176.624 L 246.169 176.624 Q 248.697 170.558 253.384 167.25 L 253.384 167.25 L 253.384 167.25 Q 258.07 163.941 263.768 163.941 L 263.768 163.941 L 263.768 163.941 Q 270.017 163.941 273.992 166.698 L 273.992 166.698 L 273.992 166.698 Q 277.967 169.455 279.208 175.705 L 279.208 175.705 L 279.208 175.705 Q 281.413 170.328 286.376 167.135 L 286.376 167.135 L 286.376 167.135 Q 291.338 163.941 297.496 163.941 L 297.496 163.941 L 297.496 163.941 Q 305.537 163.941 309.466 168.49 L 309.466 168.49 L 309.466 168.49 Q 313.394 173.04 313.44 182.138 L 313.44 182.138 L 313.44 214.579 L 310.959 214.579 L 310.959 182.321 L 310.959 182.321 Q 310.959 174.142 307.674 170.214 L 307.674 170.214 L 307.674 170.214 Q 304.388 166.285 297.358 166.377 L 297.358 166.377 L 297.358 166.377 Q 288.306 166.515 283.021 173.591 L 283.021 173.591 L 283.021 173.591 Q 279.989 177.681 279.713 181.494 L 279.713 181.494 Z  M 325.296 164.86 L 343.722 210.719 L 344.043 209.8 L 361.229 164.86 L 363.986 164.86 L 341.746 223.217 L 340.643 225.974 L 340.643 225.974 Q 337.059 234.659 328.788 234.659 L 328.788 234.659 L 328.788 234.659 Q 326.123 234.659 325.112 234.153 L 325.112 234.153 L 325.066 231.81 L 325.066 231.81 Q 326.536 232.223 328.42 232.223 L 328.42 232.223 L 328.42 232.223 Q 332.326 232.223 334.899 229.949 L 334.899 229.949 L 334.899 229.949 Q 337.472 227.674 339.356 222.528 L 339.356 222.528 L 342.389 214.303 L 322.585 164.86 L 325.296 164.86 Z " fill-rule="evenodd" fill="rgb(255,255,255)"/></svg>